<svg width="118" height="32" viewBox="0 0 118 32" fill="none" xmlns="http://www.w3.org/2000/svg">
<path d="M0.84 0.999998H6.96C6.84 3.36 6.76 8.96 6.76 15.92C6.76 19.4 6.8 23.2 6.8 25.76C10.48 25.76 15.56 25.76 19.72 25.64C19.72 26.52 19.68 27.44 19.68 28.32C19.68 29.24 19.72 30.12 19.72 31H0.84C0.84 28.48 0.96 22.4 0.96 16C0.96 8.68 0.96 3.84 0.84 0.999998ZM51.1381 15.68C51.1381 25.88 45.4181 31.56 36.3381 31.56C27.2581 31.56 21.6181 25.88 21.6181 15.68C21.6181 5.48 27.5781 0.439998 36.3381 0.439998C45.1381 0.439998 51.1381 5.48 51.1381 15.68ZM36.3781 26.28C41.9381 26.28 45.1381 22.68 45.1381 15.88C45.1381 9.08 41.8981 5.68 36.3781 5.68C30.8181 5.68 27.5381 9 27.5381 15.88C27.5381 22.72 30.8181 26.28 36.3781 26.28ZM82.6909 14.88C83.4109 25.56 81.1309 31.52 69.7709 31.52C60.3309 31.52 55.2109 25.4 55.2109 15.72C55.2109 6 60.3709 0.48 69.8909 0.48C79.1309 0.48 82.8109 5.28 82.8109 10.32C82.8109 10.88 82.8109 11.32 82.7709 11.88C82.0909 11.84 81.0509 11.8 79.9709 11.8C78.7709 11.8 77.6909 11.8 76.9709 11.88C77.0109 11.52 77.0109 11.16 77.0109 10.88C77.0109 7.36 74.6509 5.44 69.8509 5.44C64.3309 5.44 61.1709 8.2 61.1709 15.8C61.1709 23.2 64.2109 26.64 70.0109 26.64C75.3709 26.64 77.2909 24.48 77.1709 18.84C74.4509 18.88 70.6109 18.88 68.3709 18.96C68.4109 18.56 68.4109 17.76 68.4109 17.32C68.4109 16.32 68.4109 15.52 68.3709 14.84C70.8109 14.92 73.2509 14.92 75.0509 14.92C77.0909 14.92 79.9709 14.96 82.6909 14.88ZM117.349 15.68C117.349 25.88 111.629 31.56 102.549 31.56C93.4691 31.56 87.8291 25.88 87.8291 15.68C87.8291 5.48 93.7891 0.439998 102.549 0.439998C111.349 0.439998 117.349 5.48 117.349 15.68ZM102.589 26.28C108.149 26.28 111.349 22.68 111.349 15.88C111.349 9.08 108.109 5.68 102.589 5.68C97.0291 5.68 93.7491 9 93.7491 15.88C93.7491 22.72 97.0291 26.28 102.589 26.28Z" fill="#F2F0E4"/>
</svg>
