<svg width="85" height="23" viewBox="0 0 85 23" fill="none" xmlns="http://www.w3.org/2000/svg">
<path d="M8.27899 7.03223L14.0916 16.7606H2.46636L8.27899 7.03223Z" fill="#F4F2EB"/>
<path d="M17.9315 12.0078L13.1639 4.1459L22.6992 4.1459L17.9315 12.0078Z" fill="#F4F2EB"/>
<path d="M75.3843 11.0347C75.3843 10.135 75.587 9.34295 75.9926 8.65864C76.4107 7.97433 76.9747 7.44209 77.6843 7.06192C78.394 6.66908 79.1987 6.47266 80.0984 6.47266C80.9981 6.47266 81.7965 6.66908 82.4935 7.06192C83.2031 7.44209 83.7671 7.97433 84.1852 8.65864C84.6034 9.34295 84.8125 10.135 84.8125 11.0347C84.8125 11.9218 84.6034 12.7138 84.1852 13.4108C83.7671 14.0951 83.2031 14.6337 82.4935 15.0265C81.7965 15.4067 80.9981 15.5968 80.0984 15.5968C79.1987 15.5968 78.394 15.4067 77.6843 15.0265C76.9747 14.6337 76.4107 14.0951 75.9926 13.4108C75.587 12.7138 75.3843 11.9218 75.3843 11.0347ZM77.4942 11.0347C77.4942 11.5796 77.6083 12.0612 77.8364 12.4794C78.0645 12.8849 78.375 13.208 78.7678 13.4488C79.1606 13.6769 79.6042 13.791 80.0984 13.791C80.58 13.791 81.0171 13.6769 81.41 13.4488C81.8155 13.208 82.1323 12.8849 82.3604 12.4794C82.5885 12.0612 82.7026 11.5796 82.7026 11.0347C82.7026 10.4898 82.5885 10.0083 82.3604 9.59006C82.1323 9.17187 81.8155 8.84873 81.41 8.62062C81.0171 8.39252 80.58 8.27847 80.0984 8.27847C79.6042 8.27847 79.1606 8.39252 78.7678 8.62062C78.375 8.84873 78.0645 9.17187 77.8364 9.59006C77.6083 10.0083 77.4942 10.4898 77.4942 11.0347Z" fill="#F4F2EB"/>
<path d="M65.9741 6.66309H68.2171L70.4982 12.3086L72.7792 6.66309H75.0412L70.4982 16.2054L65.9741 6.66309Z" fill="#F4F2EB"/>
<path d="M56.2078 11.0347C56.2078 10.135 56.4105 9.34295 56.816 8.65864C57.2342 7.97433 57.7981 7.44209 58.5078 7.06192C59.2175 6.66908 60.0221 6.47266 60.9219 6.47266C61.8216 6.47266 62.62 6.66908 63.317 7.06192C64.0266 7.44209 64.5905 7.97433 65.0087 8.65864C65.4269 9.34295 65.636 10.135 65.636 11.0347C65.636 11.9218 65.4269 12.7138 65.0087 13.4108C64.5905 14.0951 64.0266 14.6337 63.317 15.0265C62.62 15.4067 61.8216 15.5968 60.9219 15.5968C60.0221 15.5968 59.2175 15.4067 58.5078 15.0265C57.7981 14.6337 57.2342 14.0951 56.816 13.4108C56.4105 12.7138 56.2078 11.9218 56.2078 11.0347ZM58.3177 11.0347C58.3177 11.5796 58.4318 12.0612 58.6599 12.4794C58.888 12.8849 59.1984 13.208 59.5913 13.4488C59.9841 13.6769 60.4277 13.791 60.9219 13.791C61.4034 13.791 61.8406 13.6769 62.2335 13.4488C62.639 13.208 62.9558 12.8849 63.1839 12.4794C63.412 12.0612 63.5261 11.5796 63.5261 11.0347C63.5261 10.4898 63.412 10.0083 63.1839 9.59006C62.9558 9.17187 62.639 8.84873 62.2335 8.62062C61.8406 8.39252 61.4034 8.27847 60.9219 8.27847C60.4277 8.27847 59.9841 8.39252 59.5913 8.62062C59.1984 8.84873 58.888 9.17187 58.6599 9.59006C58.4318 10.0083 58.3177 10.4898 58.3177 11.0347Z" fill="#F4F2EB"/>
<path d="M52.1414 10.0843C52.1414 9.43799 52.0084 8.95011 51.7422 8.62062C51.4761 8.29114 51.0643 8.1264 50.5067 8.1264C50.1265 8.1264 49.7907 8.20877 49.4992 8.37351C49.2078 8.52558 48.9797 8.75368 48.8149 9.05782C48.6502 9.34929 48.5678 9.69144 48.5678 10.0843V15.4067H46.5149V6.66274H48.5678V8.01235C48.8466 7.49278 49.2014 7.10628 49.6323 6.85283C50.0758 6.59938 50.6017 6.47266 51.21 6.47266C52.1985 6.47266 52.9525 6.77679 53.472 7.38507C53.9916 7.98067 54.2514 8.80437 54.2514 9.85618V15.4067H52.1414V10.0843Z" fill="#F4F2EB"/>
<path d="M38.8506 12.5364C39.1294 12.8405 39.4082 13.1066 39.687 13.3348C39.9785 13.5502 40.2699 13.7149 40.5614 13.829C40.8529 13.9304 41.1443 13.981 41.4358 13.981C41.8033 13.981 42.0884 13.8987 42.2912 13.7339C42.5066 13.5692 42.6143 13.3411 42.6143 13.0496C42.6143 12.7962 42.5319 12.5807 42.3672 12.4033C42.2025 12.2132 41.9744 12.0548 41.6829 11.9281C41.3914 11.7887 41.0493 11.6493 40.6564 11.5099C40.2636 11.3579 39.8707 11.1804 39.4779 10.9777C39.0977 10.7623 38.7809 10.4835 38.5275 10.1413C38.2867 9.79916 38.1663 9.3683 38.1663 8.84873C38.1663 8.31649 38.2994 7.87295 38.5655 7.51813C38.8443 7.1633 39.2118 6.90352 39.668 6.73878C40.1369 6.56136 40.6374 6.47266 41.1697 6.47266C41.6512 6.47266 42.1011 6.54235 42.5193 6.68175C42.9501 6.82115 43.3366 7.0049 43.6788 7.233C44.0209 7.4611 44.3124 7.72089 44.5532 8.01235L43.4127 9.2289C43.1212 8.88674 42.7727 8.60795 42.3672 8.39252C41.9617 8.17709 41.5435 8.06938 41.1126 8.06938C40.8212 8.06938 40.5804 8.13274 40.3903 8.25946C40.2002 8.38619 40.1052 8.56994 40.1052 8.81071C40.1052 9.01347 40.1876 9.19722 40.3523 9.36196C40.5297 9.51403 40.7578 9.65342 41.0366 9.78015C41.3281 9.90687 41.6512 10.0399 42.006 10.1793C42.4876 10.3694 42.9311 10.5785 43.3366 10.8066C43.7422 11.0347 44.0653 11.3135 44.3061 11.643C44.5595 11.9725 44.6862 12.4033 44.6862 12.9356C44.6862 13.7593 44.4011 14.4246 43.8309 14.9315C43.2733 15.4257 42.5129 15.6728 41.5498 15.6728C40.9542 15.6728 40.403 15.5841 39.8961 15.4067C39.4019 15.2166 38.9647 14.9758 38.5845 14.6844C38.217 14.3802 37.9065 14.0634 37.6531 13.7339L38.8506 12.5364Z" fill="#F4F2EB"/>
<path d="M27.0789 11.0347C27.0789 10.135 27.2816 9.34295 27.6871 8.65864C28.1053 7.97433 28.6692 7.44209 29.3789 7.06192C30.0885 6.66908 30.8932 6.47266 31.793 6.47266C32.6927 6.47266 33.4911 6.66908 34.1881 7.06192C34.8977 7.44209 35.4616 7.97433 35.8798 8.65864C36.298 9.34295 36.5071 10.135 36.5071 11.0347C36.5071 11.9218 36.298 12.7138 35.8798 13.4108C35.4616 14.0951 34.8977 14.6337 34.1881 15.0265C33.4911 15.4067 32.6927 15.5968 31.793 15.5968C30.8932 15.5968 30.0885 15.4067 29.3789 15.0265C28.6692 14.6337 28.1053 14.0951 27.6871 13.4108C27.2816 12.7138 27.0789 11.9218 27.0789 11.0347ZM29.1888 11.0347C29.1888 11.5796 29.3029 12.0612 29.531 12.4794C29.7591 12.8849 30.0695 13.208 30.4624 13.4488C30.8552 13.6769 31.2988 13.791 31.793 13.791C32.2745 13.791 32.7117 13.6769 33.1046 13.4488C33.5101 13.208 33.8269 12.8849 34.055 12.4794C34.2831 12.0612 34.3972 11.5796 34.3972 11.0347C34.3972 10.4898 34.2831 10.0083 34.055 9.59006C33.8269 9.17187 33.5101 8.84873 33.1046 8.62062C32.7117 8.39252 32.2745 8.27847 31.793 8.27847C31.2988 8.27847 30.8552 8.39252 30.4624 8.62062C30.0695 8.84873 29.7591 9.17187 29.531 9.59006C29.3029 10.0083 29.1888 10.4898 29.1888 11.0347Z" fill="#F4F2EB"/>
</svg>
